<svg xmlns="http://www.w3.org/2000/svg" xmlns:xlink="http://www.w3.org/1999/xlink" width="500" zoomAndPan="magnify" viewBox="0 0 375 374.999991" height="500" preserveAspectRatio="xMidYMid meet" version="1.0"><defs><filter x="0%" y="0%" width="100%" height="100%" id="3485382cc4"><feColorMatrix values="0 0 0 0 1 0 0 0 0 1 0 0 0 0 1 0 0 0 1 0" color-interpolation-filters="sRGB"/></filter><mask id="d05f2fef30"><g filter="url(#3485382cc4)"><rect x="-37.5" width="450" fill="#000000" y="-37.499999" height="449.999989" fill-opacity="0.98"/></g></mask><clipPath id="d1a685104b"><rect x="0" width="375" y="0" height="70"/></clipPath><clipPath id="7a375869b6"><path d="M 8 145 L 112.5 145 L 112.5 253.039062 L 8 253.039062 Z M 8 145 " clip-rule="nonzero"/></clipPath><clipPath id="a22ae13265"><path d="M 0 137.539062 L 104 137.539062 L 104 246 L 0 246 Z M 0 137.539062 " clip-rule="nonzero"/></clipPath><clipPath id="35de636e71"><path d="M 70 163 L 149.496094 163 L 149.496094 249.679688 L 70 249.679688 Z M 70 163 " clip-rule="nonzero"/></clipPath><clipPath id="41ae848519"><path d="M 64 158.179688 L 143 158.179688 L 143 245 L 64 245 Z M 64 158.179688 " clip-rule="nonzero"/></clipPath><clipPath id="6a2436f63f"><path d="M 250 161 L 326.121094 161 L 326.121094 252.339844 L 250 252.339844 Z M 250 161 " clip-rule="nonzero"/></clipPath><clipPath id="4b870a0662"><path d="M 244.371094 155.589844 L 321 155.589844 L 321 247 L 244.371094 247 Z M 244.371094 155.589844 " clip-rule="nonzero"/></clipPath><clipPath id="c4b194363c"><path d="M 190 163 L 272.695312 163 L 272.695312 248.929688 L 190 248.929688 Z M 190 163 " clip-rule="nonzero"/></clipPath><clipPath id="1a4db371e8"><path d="M 184.195312 158.179688 L 267 158.179688 L 267 244 L 184.195312 244 Z M 184.195312 158.179688 " clip-rule="nonzero"/></clipPath><clipPath id="1e36243e1e"><path d="M 128.78125 165 L 206 165 L 206 245.800781 L 128.78125 245.800781 Z M 128.78125 165 " clip-rule="nonzero"/></clipPath><clipPath id="3ad1c030a1"><path d="M 135 161.800781 L 211.28125 161.800781 L 211.28125 243 L 135 243 Z M 135 161.800781 " clip-rule="nonzero"/></clipPath><clipPath id="6135075abc"><path d="M 313 151.480469 L 375 151.480469 L 375 234 L 313 234 Z M 313 151.480469 " clip-rule="nonzero"/></clipPath><clipPath id="93ddb7f9b3"><path d="M 307.164062 156 L 374 156 L 374 239 L 307.164062 239 Z M 307.164062 156 " clip-rule="nonzero"/></clipPath></defs><g mask="url(#d05f2fef30)"><g transform="matrix(1, 0, 0, 1, 0, 169)"><g clip-path="url(#d1a685104b)"><path fill="#040606" d="M 0 2.066406 L 375 2.066406 L 375 67.757812 L 0 67.757812 L 0 2.066406 " fill-opacity="1" fill-rule="nonzero"/></g></g></g><g clip-path="url(#7a375869b6)"><path fill="#282727" d="M 22.199219 145.285156 L 8.550781 173.941406 L 24.683594 197.640625 L 15.542969 228.832031 L 17.140625 248.515625 L 83.34375 253.042969 L 81.761719 192.964844 L 108.140625 187.878906 L 112.484375 158.597656 L 22.199219 145.285156 " fill-opacity="1" fill-rule="nonzero"/></g><g clip-path="url(#a22ae13265)"><path fill="#fbc83f" d="M 13.664062 137.542969 L 0.015625 166.199219 L 16.152344 189.898438 L 7.007812 221.089844 L 8.605469 240.773438 L 74.8125 245.300781 L 73.226562 185.222656 L 99.609375 180.136719 L 103.953125 150.855469 L 13.664062 137.542969 " fill-opacity="1" fill-rule="nonzero"/></g><path fill="#f35fb7" d="M 29.183594 230.980469 L 37.519531 174.789062 L 18.734375 172.019531 L 21.972656 150.199219 L 83.128906 159.21875 L 79.894531 181.039062 L 61.21875 178.285156 L 52.882812 234.476562 L 29.183594 230.980469 " fill-opacity="1" fill-rule="nonzero"/><path fill="#211e1e" d="M 79.210938 155.046875 L 75.679688 154.523438 L 18.050781 146.027344 L 14.523438 145.507812 L 14 149.023438 L 11.285156 167.328125 L 10.765625 170.84375 L 14.292969 171.367188 L 29.546875 173.617188 L 21.734375 226.289062 L 21.214844 229.804688 L 24.742188 230.324219 L 44.914062 233.300781 L 48.441406 233.820312 L 48.960938 230.304688 L 56.773438 177.628906 L 71.921875 179.863281 L 75.453125 180.386719 L 75.972656 176.867188 L 78.6875 158.5625 Z M 75.160156 158.042969 L 72.445312 176.347656 L 53.769531 173.59375 L 45.433594 229.78125 L 25.265625 226.808594 L 33.597656 170.617188 L 14.8125 167.847656 L 17.527344 149.542969 L 75.160156 158.042969 " fill-opacity="1" fill-rule="nonzero"/><g clip-path="url(#35de636e71)"><path fill="#282727" d="M 93.316406 163.492188 L 73.375 173.019531 L 70.933594 203.648438 L 76.632812 249.679688 L 149.480469 249.679688 L 142.96875 226.398438 L 143.785156 184.324219 L 129.4375 163.492188 L 93.316406 163.492188 " fill-opacity="1" fill-rule="nonzero"/></g><g clip-path="url(#41ae848519)"><path fill="#f4a5d6" d="M 86.398438 158.183594 L 66.457031 167.710938 L 64.015625 198.335938 L 69.714844 244.371094 L 142.5625 244.371094 L 136.050781 221.085938 L 136.863281 179.015625 L 122.519531 158.183594 L 86.398438 158.183594 " fill-opacity="1" fill-rule="nonzero"/></g><path fill="#93d89e" d="M 107.6875 198.917969 C 111.308594 198.917969 113.144531 197.246094 113.144531 193.953125 C 113.144531 192.296875 112.6875 191.03125 111.78125 190.191406 C 110.859375 189.332031 109.484375 188.898438 107.6875 188.898438 L 102.738281 188.898438 L 102.738281 198.917969 Z M 114.726562 233.757812 L 102.820312 215.90625 L 102.820312 233.757812 L 84.191406 233.757812 L 84.191406 171.476562 L 108.109375 171.476562 C 122.707031 171.476562 131.773438 179.601562 131.773438 192.675781 C 131.773438 197.171875 130.691406 201.105469 128.558594 204.375 C 126.730469 207.179688 124.214844 209.359375 121.066406 210.875 L 134.3125 230.132812 L 134.3125 233.757812 L 114.726562 233.757812 " fill-opacity="1" fill-rule="nonzero"/><path fill="#211e1e" d="M 99.210938 188.898438 L 102.761719 188.898438 C 103.75 188.898438 105.09375 189.058594 105.90625 189.816406 C 106.515625 190.382812 106.820312 191.300781 106.820312 192.546875 C 106.820312 193.777344 106.519531 194.675781 105.925781 195.21875 C 105.117188 195.957031 103.761719 196.109375 102.761719 196.109375 L 99.210938 196.109375 Z M 103.1875 168.667969 L 77.871094 168.667969 L 77.871094 233.757812 L 99.296875 233.757812 L 99.296875 219.125 L 108.226562 232.511719 L 109.058594 233.757812 L 130.789062 233.757812 L 130.789062 228.289062 L 130.292969 227.570312 L 118.1875 209.972656 C 124.625 206.242188 128.25 199.601562 128.25 191.273438 C 128.25 184.433594 125.875 178.695312 121.382812 174.6875 C 119.171875 172.710938 116.484375 171.195312 113.394531 170.179688 C 110.339844 169.175781 106.90625 168.667969 103.1875 168.667969 Z M 96.414062 198.917969 L 102.761719 198.917969 C 107.082031 198.917969 109.621094 196.710938 109.621094 192.546875 C 109.621094 188.382812 107.082031 186.089844 102.761719 186.089844 L 96.414062 186.089844 L 96.414062 198.917969 M 103.1875 171.476562 C 117.070312 171.476562 125.449219 179.039062 125.449219 191.273438 C 125.449219 199.769531 121.300781 206.054688 114.023438 208.859375 L 127.988281 229.167969 L 127.988281 230.949219 L 110.550781 230.949219 L 96.5 209.878906 L 96.5 230.949219 L 80.667969 230.949219 L 80.667969 171.476562 L 103.1875 171.476562 " fill-opacity="1" fill-rule="nonzero"/><g clip-path="url(#6a2436f63f)"><path fill="#282727" d="M 264.886719 161.519531 L 326.121094 168.902344 L 323.285156 192.503906 L 319.148438 252.332031 L 276.71875 247.214844 L 250.4375 237.058594 L 264.886719 161.519531 " fill-opacity="1" fill-rule="nonzero"/></g><g clip-path="url(#4b870a0662)"><path fill="#add2f1" d="M 258.824219 155.59375 L 320.054688 162.976562 L 317.222656 186.578125 L 313.082031 246.40625 L 270.652344 241.292969 L 244.371094 231.132812 L 258.824219 155.59375 " fill-opacity="1" fill-rule="nonzero"/></g><path fill="#8b72c0" d="M 261.90625 231.648438 L 269.949219 164.65625 L 314.734375 170.054688 L 312.570312 188.0625 L 287.765625 185.074219 L 286.976562 191.648438 L 309.867188 194.40625 L 307.738281 212.144531 L 284.847656 209.382812 L 284.078125 215.773438 L 309.617188 218.855469 L 307.417969 237.136719 L 261.90625 231.648438 " fill-opacity="1" fill-rule="nonzero"/><path fill="#211e1e" d="M 311.300781 166.574219 L 308.285156 166.210938 L 266.515625 161.175781 L 263.5 160.8125 L 263.136719 163.832031 L 255.457031 227.808594 L 255.09375 230.828125 L 258.109375 231.191406 L 300.609375 236.316406 L 303.625 236.679688 L 303.988281 233.660156 L 305.820312 218.398438 L 306.183594 215.375 L 303.167969 215.011719 L 280.644531 212.296875 L 281.050781 208.925781 L 300.925781 211.320312 L 303.941406 211.683594 L 304.304688 208.664062 L 306.070312 193.949219 L 306.433594 190.929688 L 303.417969 190.566406 L 283.542969 188.167969 L 283.96875 184.613281 L 305.761719 187.242188 L 308.777344 187.605469 L 309.136719 184.585938 L 310.9375 169.597656 Z M 307.925781 169.234375 L 306.125 184.222656 L 281.316406 181.230469 L 280.164062 190.828125 L 303.054688 193.585938 L 301.289062 208.300781 L 278.398438 205.539062 L 277.269531 214.953125 L 302.804688 218.03125 L 300.972656 233.296875 L 258.472656 228.171875 L 266.152344 164.195312 L 307.925781 169.234375 " fill-opacity="1" fill-rule="nonzero"/><g clip-path="url(#c4b194363c)"><path fill="#282727" d="M 202.386719 165.769531 L 190.46875 186.855469 L 200.3125 221.980469 L 211.601562 247.226562 C 211.601562 247.226562 257.789062 248.925781 257.179688 248.902344 C 256.570312 248.878906 272.691406 198.152344 272.691406 198.152344 L 270.6875 164.96875 L 222.6875 163.207031 L 202.386719 165.769531 " fill-opacity="1" fill-rule="nonzero"/></g><g clip-path="url(#1a4db371e8)"><path fill="#f4a5d6" d="M 196.113281 160.757812 L 184.195312 181.839844 L 194.039062 216.96875 L 205.328125 242.214844 C 205.328125 242.214844 251.515625 243.910156 250.90625 243.886719 C 250.296875 243.867188 266.417969 193.136719 266.417969 193.136719 L 264.414062 159.957031 L 216.414062 158.191406 L 196.113281 160.757812 " fill-opacity="1" fill-rule="nonzero"/></g><path fill="#93d89e" d="M 224.296875 228.269531 L 205.960938 174.679688 L 206.078125 171.582031 L 223.234375 172.210938 L 227.058594 184.675781 L 232.128906 201.734375 L 238.511719 185.085938 L 243.238281 172.945312 L 260.167969 173.566406 L 260.054688 176.664062 L 237.894531 228.769531 L 224.296875 228.269531 " fill-opacity="1" fill-rule="nonzero"/><path fill="#211e1e" d="M 257.078125 170.929688 L 254.546875 170.835938 L 239.78125 170.292969 L 237.984375 170.226562 L 237.332031 171.902344 L 232.929688 183.203125 L 232.929688 183.210938 L 232.925781 183.214844 L 227.878906 196.378906 L 223.867188 182.890625 L 223.863281 182.878906 L 223.863281 182.871094 L 220.304688 171.277344 L 219.78125 169.558594 L 217.980469 169.492188 L 202.984375 168.941406 L 200.457031 168.847656 L 200.363281 171.371094 L 200.304688 172.972656 L 200.285156 173.441406 L 200.4375 173.882812 L 218.417969 226.433594 L 218.980469 228.074219 L 220.71875 228.140625 L 232.574219 228.574219 L 234.316406 228.636719 L 235 227.039062 L 256.726562 175.945312 L 256.90625 175.519531 L 256.925781 175.054688 L 256.984375 173.449219 Z M 254.457031 173.359375 L 254.394531 174.960938 L 232.667969 226.050781 L 220.8125 225.617188 L 202.832031 173.066406 L 202.890625 171.464844 L 217.886719 172.015625 L 221.441406 183.609375 L 227.574219 204.238281 L 235.289062 184.117188 L 239.691406 172.816406 L 254.457031 173.359375 " fill-opacity="1" fill-rule="nonzero"/><g clip-path="url(#1e36243e1e)"><path fill="#231f20" d="M 137.953125 184.984375 L 152.695312 165.699219 L 184.132812 165.101562 L 205.039062 245.535156 C 205.039062 245.535156 133.140625 245.238281 133.890625 245.535156 C 134.644531 245.835938 128.78125 197.246094 128.78125 197.246094 Z M 137.953125 184.984375 " fill-opacity="1" fill-rule="nonzero"/></g><g clip-path="url(#3ad1c030a1)"><path fill="#43403b" d="M 144.195312 181.691406 L 158.9375 162.410156 L 190.375 161.8125 L 211.28125 242.246094 C 211.28125 242.246094 139.382812 241.949219 140.132812 242.246094 C 140.886719 242.546875 135.023438 193.957031 135.023438 193.957031 Z M 144.195312 181.691406 " fill-opacity="1" fill-rule="nonzero"/></g><path fill="#f3ebd8" d="M 200.675781 227.109375 C 200.71875 227.5625 200.433594 227.90625 199.816406 228.140625 C 199.078125 228.414062 196.734375 228.730469 192.789062 229.09375 C 190.460938 229.378906 188.125 229.492188 185.78125 229.4375 C 185.347656 229.394531 184.96875 229.230469 184.636719 228.949219 C 184.308594 228.664062 184.09375 228.3125 183.992188 227.890625 C 182.792969 224.351562 181.941406 222.480469 181.4375 222.269531 C 181.015625 222.132812 177.621094 222.359375 171.246094 222.945312 C 166.945312 223.34375 164.667969 223.667969 164.414062 223.921875 C 164.019531 224.363281 163.664062 225.75 163.347656 228.089844 C 163.0625 230.21875 162.585938 231.40625 161.921875 231.644531 C 161.078125 231.925781 158.207031 232.289062 153.300781 232.746094 C 149.429688 233.101562 147.464844 232.914062 147.398438 232.1875 C 147.335938 231.535156 149.441406 223.238281 153.71875 207.300781 C 158.355469 190.0625 160.859375 180.589844 161.234375 178.882812 C 161.449219 177.898438 161.761719 177.390625 162.164062 177.351562 C 162.847656 177.289062 163.910156 177.253906 165.347656 177.25 C 166.789062 177.242188 167.863281 177.207031 168.574219 177.140625 C 169.253906 177.078125 170.257812 176.941406 171.574219 176.730469 C 172.894531 176.515625 173.882812 176.382812 174.539062 176.320312 C 175.019531 176.277344 175.503906 176.652344 175.984375 177.445312 C 177.472656 179.96875 181.933594 188.683594 189.375 203.589844 C 196.84375 218.589844 200.613281 226.433594 200.675781 227.109375 Z M 170.570312 195.246094 C 170.140625 196.402344 169.46875 198.886719 168.546875 202.699219 C 167.550781 206.746094 167.082031 209.109375 167.144531 209.785156 C 167.1875 210.238281 167.96875 210.421875 169.492188 210.332031 C 170.28125 210.308594 171.574219 210.214844 173.367188 210.050781 C 175.039062 209.894531 175.941406 209.609375 176.082031 209.191406 C 176.125 209.015625 176.132812 208.835938 176.109375 208.65625 C 176.03125 207.828125 175.234375 205.59375 173.722656 201.957031 C 172.824219 199.648438 171.773438 197.410156 170.570312 195.246094 Z M 170.570312 195.246094 " fill-opacity="1" fill-rule="nonzero"/><g clip-path="url(#6135075abc)"><path fill="#231f20" d="M 313.960938 159.902344 C 313.960938 163.503906 323.578125 234.359375 325.984375 233.761719 C 328.386719 233.160156 380.683594 227.757812 380.683594 227.757812 L 368.058594 208.539062 L 352.429688 151.496094 Z M 313.960938 159.902344 " fill-opacity="1" fill-rule="nonzero"/></g><g clip-path="url(#93ddb7f9b3)"><path fill="#f3ebd8" d="M 307.214844 164.804688 C 307.214844 168.40625 316.832031 239.261719 319.238281 238.664062 C 321.640625 238.066406 373.9375 232.660156 373.9375 232.660156 L 361.3125 213.441406 L 345.683594 156.398438 Z M 307.214844 164.804688 " fill-opacity="1" fill-rule="nonzero"/></g><path fill="#ff8d53" d="M 356.8125 224.8125 C 354.980469 225.183594 352.585938 225.617188 349.628906 226.109375 L 342.4375 227.363281 L 332.859375 229.148438 C 331.90625 229.367188 330.523438 229.59375 328.710938 229.824219 C 328.5625 229.832031 328.421875 229.808594 328.28125 229.761719 C 328.144531 229.710938 328.019531 229.636719 327.910156 229.539062 C 327.800781 229.441406 327.710938 229.328125 327.648438 229.195312 C 327.582031 229.0625 327.542969 228.925781 327.53125 228.777344 C 326.941406 225.878906 326.089844 221.527344 324.984375 215.726562 C 323.878906 209.925781 323.03125 205.574219 322.4375 202.671875 C 321.808594 199.585938 320.789062 194.976562 319.386719 188.851562 C 317.980469 182.722656 316.960938 178.113281 316.332031 175.027344 C 316.214844 174.441406 316.472656 174.085938 317.113281 173.953125 C 317.75 173.824219 318.710938 173.667969 319.992188 173.488281 C 321.273438 173.308594 322.222656 173.15625 322.84375 173.03125 C 323.542969 172.890625 324.578125 172.628906 325.941406 172.253906 C 327.304688 171.878906 328.335938 171.621094 329.039062 171.476562 C 329.355469 171.414062 329.558594 171.636719 329.640625 172.144531 L 329.714844 172.671875 C 330.484375 177.726562 331.730469 185.304688 333.457031 195.398438 L 335.574219 205.941406 C 336.269531 209.347656 336.789062 211.832031 337.128906 213.398438 C 337.214844 213.714844 337.300781 214.027344 337.386719 214.34375 C 337.414062 214.484375 337.484375 214.605469 337.597656 214.699219 C 337.710938 214.792969 337.839844 214.839844 337.988281 214.84375 C 338.007812 214.839844 338.285156 214.785156 338.820312 214.675781 C 340.734375 214.285156 343.574219 213.574219 347.34375 212.542969 C 351.113281 211.511719 353.953125 210.800781 355.871094 210.410156 C 356.445312 210.292969 356.792969 210.542969 356.917969 211.152344 C 357.765625 215.089844 358.300781 219.070312 358.523438 223.089844 C 358.558594 223.804688 358.417969 224.257812 358.105469 224.464844 C 357.6875 224.632812 357.257812 224.75 356.8125 224.8125 Z M 356.8125 224.8125 " fill-opacity="1" fill-rule="nonzero"/></svg>